<?xml version="1.0" standalone="no"?><!DOCTYPE svg PUBLIC "-//W3C//DTD SVG 1.1//EN" "http://www.w3.org/Graphics/SVG/1.1/DTD/svg11.dtd"><svg t="1537506118729" class="icon" style="" viewBox="0 0 1024 1024" version="1.1" xmlns="http://www.w3.org/2000/svg" p-id="7109" xmlns:xlink="http://www.w3.org/1999/xlink" width="64" height="64"><defs><style type="text/css"></style></defs><path d="M886.8 415.6c0-94.5-76.3-171-170.3-171s-170.3 76.6-170.3 171c0 94.5 76.3 171 170.3 171s170.3-76.6 170.3-171z m-311 0c0-78 63-141.3 140.7-141.3s140.7 63.3 140.7 141.3-63 141.3-140.7 141.3-140.7-63.3-140.7-141.3z" fill="" p-id="7110"></path><path d="M722 809.7v14.9h14.8-66.1 349.4v-14.9c0-133.5-137.1-252.8-296.2-252.8-9.6 0-19.1 0.4-28.5 1.2-8.2 0.7 13.1 7.8 13.7 16 8.6-0.7 6 12.6 14.8 12.6 143.7 0 266.6 107 266.6 223.1l14.8-14.9h-343H722v14.8M368.7 837.3l-77.9-73.4 28.5-161.8h95.1l21.7 162.5-67.4 72.7z m-46.4-88.4l44.9 43.4 40.4-41.9L392 632.1h-51.7l-18 116.8z" fill="" p-id="7111"></path><path d="M475.1 551.9c67.4-37.4 112.3-107.9 112.3-190.2 0-119.8-96.6-217.2-215-217.2s-215 96.6-215 217.2 96.6 217.2 215 217.2h9c173 0 322.8 123.6 335.5 263.6H44.4c7.5-93.6 68.9-176 162.5-224.7 9-4.5 12.7-15.7 7.5-24.7-5.2-9-15.7-12.7-24.7-7.5C75.9 641 5.5 745.2 5.5 861.2V880H754.4v-18.7c0.1-143.9-121.3-271.9-279.3-309.4zM192.7 361.7c0-98.1 79.4-178.3 178.3-178.3s178.3 79.4 178.3 177.5S469.2 539.2 371 539.2c-98.1 0-178.3-79.4-178.3-177.5z" fill="" p-id="7112"></path><path d="M577.3 591.4m-13.4 0a13.4 13.4 0 1 0 26.8 0 13.4 13.4 0 1 0-26.8 0Z" fill="" p-id="7113"></path></svg>