<svg id="Layer_1" data-name="Layer 1" xmlns="http://www.w3.org/2000/svg" viewBox="0 0 850 200"><defs><style>.cls-1{fill:none;}.cls-2{fill:#135fad;}.cls-3{fill:#ed920e;}</style></defs><title>logo</title><line class="cls-1" x1="170.73" y1="126.97" x2="170.73" y2="126.97"/><line class="cls-1" x1="164.32" y1="133.36" x2="164.32" y2="133.36"/><line class="cls-1" x1="141.48" y1="80.78" x2="141.48" y2="80.78"/><line class="cls-1" x1="130.16" y1="87.26" x2="130.16" y2="87.26"/><path class="cls-2" d="M50.66,105,11,16.8H37.09L67.88,90,56.26,117.5Z"/><polyline class="cls-3" points="44.03 16.8 97.54 16.8 70.78 83.25 44.03 16.8 97.54 16.8"/><path class="cls-2" d="M75.62,139.46l-4.84,11.28-10.49-24,44-109.94h24Z"/><path class="cls-2" d="M179.09,115.45H130.69l5.2-15.17h35.35a17.54,17.54,0,0,0-2.71-7c-4.59-6.58-11.43-10.93-20.1-10.93-15,0-26.6,12-26.6,27.41s12.13,27.87,27.1,27.87a27.06,27.06,0,0,0,24.45-15.83l9.46,12.68a44,44,0,0,1-35.48,17.75c-24.19,0-43.81-19.24-43.81-43s19.61-43,43.81-43,43.81,19.24,43.81,43a42.5,42.5,0,0,1-.45,6.15Z"/><ellipse class="cls-1" cx="234.59" cy="84.68" rx="18.19" ry="15.29"/><path class="cls-2" d="M275.11,128.37v23.9h-17V99.35c0-8.61-9.34-15.58-20.87-15.58s-20.87,7-20.87,15.58v52.92H198.66V68.48H217.3V78c5.53-7,15.08-11.69,25.92-11.69A33.1,33.1,0,0,1,266.7,76.43a28.19,28.19,0,0,1,6,8.26c1,2.31,2.45,4.78,2.45,7.49Z"/><path class="cls-2" d="M484.88,124.47v23.9h-17V95.45c0-8.61-9.34-15.58-20.87-15.58s-20.87,7-20.87,15.58v52.92H408.44V64.58h18.64v9.55c5.53-7,15.08-11.69,25.92-11.69a33.1,33.1,0,0,1,23.48,10.09,28.19,28.19,0,0,1,6,8.26c1,2.31,2.45,4.78,2.45,7.49Z"/><path class="cls-2" d="M302.19,158.73c-3.67,14.21-13.09,24.34-24.15,24.34l-9-12.45c7.29,0,13.46-6,16.24-15.34a6.3,6.3,0,0,0,.2-1v-88h17.25V154.7A27.64,27.64,0,0,1,302.19,158.73Z"/><rect class="cls-2" x="285.13" y="41.53" width="17.93" height="17.93"/><path class="cls-2" d="M567.45,109.35l5.5,8.36-11.42,20.18c-3,3.24-13.24,13.25-27.73,13.46-20.83.29-40.88-19.85-40.77-43,.11-23,20-42.73,40.77-42.61,14.53.08,24.83,9.86,27.93,13V68.17l17.33.2V152c-2.6,21.25-16.92,32.21-37.51,34.25a45.79,45.79,0,0,1-41.18-17.74l11-9.79A36.37,36.37,0,0,0,534,169.29c9.64.8,15.54-2.57,20.37-6.35a21.86,21.86,0,0,0,5.25-5.23s1.36-1.12,1.55-4.37c.5-8.72.66-27,.72-40.6q0-1.29,0-2.52c0-1.17,0-2.3,0-3.36,0-.86,0-1.69,0-2.47a9.44,9.44,0,0,0-.45-3c-3.73-11.11-14-18.58-25-18.49-13.57.12-24.9,11.33-25.89,25.48-1.43,20.39,17.28,27.27,25.48,26.71,13.81.87,20.57-9.08,23.65-13.86a8.31,8.31,0,0,0,1.51-3.22c1.11-6.82,2-5.11,2.49-5.9C570.15,101.57,566.16,112.19,567.45,109.35Z"/><path class="cls-2" d="M354.61,65.62l-.1,17a21,21,0,0,0-2.22.25c-9.84,1.64-22.34,4.85-23.26,24.72-.66,14.35,12.46,28.38,27.42,27.22,11.82-.92,27.79-10.13,26.5-26.5-1.33-16.82-9-28.44-40.06-25.18-.68-4.62-3.5-8.83-4.18-13.46,4-1.56,8.46-4.08,17.74-4.59,20.36-1.12,43.93,16.41,43.83,44-.09,23.68-19.95,42.72-43.32,43-23.15.3-45.25-17.94-45.26-42.4C311.69,81.32,331,65,354.61,65.62Z"/><path class="cls-2" d="M660.41,61.85c-6,.85-11.07,3-17,3.87-6.18.88-13.19.44-19.37,1.33l-.1,9.68,14.27.2.1,9.38L621,86.21l.2,12.74,15-.2L618.72,133l7.85,4.79,11.62-20.39v44.85h12.44V115l5.2,10.7c2.34,0,5.91,0,8.26,0-2.62-5.67-4.72-11.37-7.34-17h-6.12V98.85h12.13V86.41H650.31V74.28l6.21-1.4,8.68-2Z"/><path class="cls-2" d="M679.83,59.61h12.38c.05,1.53-.55,2.83-.79,4.34-.14.55-.35,1-.44,1.32-.15.49,0,.25-.9,1.8-.55.91-1.07,1.46-1.65,2.36,9.17,0,18.92,0,28.1,0l-8.87,17.12h11.47v39H667.9v-9.95h36.7v-4.74h-37V101h36.85V96.3h-37V86.52h27.06l4.74-7.64c-5.66,0-12.23.15-17.89.15-.82,1.07-.31,1.38-1.82,3.43-.9,1.21-1.55,2-2.46,3.22l-9.25-6.73c2.76-3.59,5.05-5.53,7.26-9.1A32.88,32.88,0,0,0,679.83,59.61Z"/><path class="cls-2" d="M660.72,132.85H672l-6.42,24.77H654.14Z"/><path class="cls-2" d="M675.24,132.85h9.63c.8,1,.23-2.14.15,5.5,0,8.67-.08,10.84.22,12.2.24,1.12,1.16,1.3,2,1.31,12.52.1,5.12.2,16.77.1a3.19,3.19,0,0,0,3.21-2.14c.82-1.53-.92-5.66,2.45,8.87.42,1.8-1.69,3.51-2.91,3.52-17.28.05-9.33.05-26.45.15-1.31,0-2.09-.56-3.87-2.8a9,9,0,0,1-1.44-5.5Z"/><path class="cls-2" d="M689.46,132.92H700l2.68,14.68H692.11Z"/><path class="cls-2" d="M707.74,133h10.71l6.19,24.69H714.14Z"/><path class="cls-2" d="M777.53,59.45h14.68V66.8h36.86v9.94H792.21v7.49h36.7v41.59H790.84c0-3.31,4.12-6.63,4.12-9.94h19.44v-7.65H794.8V101H814.4V93.55H777.69Z"/><path class="cls-2" d="M783.65,84.07H745.88v41.59h34.25v7.49h-41.6v12.08h41.29V162H795v-17h44V133.13H794.66V122.29a20.58,20.58,0,0,0,21.41-6.57H760.26v-7.53h59.33v-7.31H760.26V93.54h57.83V88H783.34Z"/></svg>