<?xml version="1.0" standalone="no"?><!DOCTYPE svg PUBLIC "-//W3C//DTD SVG 1.1//EN" "http://www.w3.org/Graphics/SVG/1.1/DTD/svg11.dtd"><svg t="1537504853375" class="icon" style="" viewBox="0 0 1024 1024" version="1.1" xmlns="http://www.w3.org/2000/svg" p-id="6377" xmlns:xlink="http://www.w3.org/1999/xlink" width="64" height="64"><defs><style type="text/css"></style></defs><path d="M758.033509 117.858268c-61.674665-61.674665-143.67219-95.638197-230.898811-95.638197s-169.224146 33.963533-230.898811 95.638197-95.638197 143.67219-95.638197 230.898811c0 67.405179 16.567327 143.528927 49.251727 226.242767 25.838482 65.409732 61.807694 135.199215 106.884332 207.434399 76.522838 122.622782 151.85864 208.774931 155.030889 212.387201 3.87833 4.420683 9.486048 6.958482 15.370059 6.958482l0.092098 0c5.924943-0.030699 11.542894-2.619664 15.410991-7.101745 3.162016-3.673669 78.446653-91.381244 154.928558-214.771505 45.066405-72.695672 81.004919-142.56702 106.8434-207.659527 32.694633-82.386382 49.26196-157.578921 49.26196-223.490074C853.671707 261.530458 819.708174 179.532933 758.033509 117.858268zM766.475785 556.846394c-24.886807 62.779835-59.668984 130.399909-103.374392 200.977337-54.736649 88.36249-110.056582 159.441339-136.099724 191.56292-26.094308-31.68156-81.281211-101.593839-135.874597-189.158151-43.695175-70.065775-78.456886-137.552819-103.33346-200.588481-30.699186-77.781504-46.263673-148.727323-46.263673-210.882941 0-76.287477 29.706579-148.021242 83.645049-201.959711s125.662001-83.645049 201.959711-83.645049c76.287477 0 148.011009 29.706579 201.959711 83.645049 53.93847 53.948703 83.645049 125.672234 83.645049 201.959711C812.739459 409.398204 797.174971 479.402581 766.475785 556.846394zM670.029176 369.161804c0 11.307533-9.15859 20.466124-20.466124 20.466124-11.2973 0-20.466124-9.15859-20.466124-20.466124 0-56.220443-45.741787-101.96223-101.96223-101.96223s-101.96223 45.741787-101.96223 101.96223 45.741787 101.96223 101.96223 101.96223c14.623046 0 28.734438-3.018753 41.935088-8.984628 10.304693-4.656043 22.420639-0.081864 27.076682 10.222829 4.656043 10.29446 0.081864 22.420639-10.222829 27.076682-18.532075 8.370645-38.312584 12.617365-58.788941 12.617365-78.794577 0-142.894478-64.0999-142.894478-142.894478s64.0999-142.894478 142.894478-142.894478S670.029176 290.367227 670.029176 369.161804z" p-id="6378"></path></svg>