<?xml version="1.0" standalone="no"?><!DOCTYPE svg PUBLIC "-//W3C//DTD SVG 1.1//EN" "http://www.w3.org/Graphics/SVG/1.1/DTD/svg11.dtd"><svg t="1537110716135" class="icon" style="" viewBox="0 0 1024 1024" version="1.1" xmlns="http://www.w3.org/2000/svg" p-id="5814" xmlns:xlink="http://www.w3.org/1999/xlink" width="48" height="48"><defs><style type="text/css"></style></defs><path d="M512 178.24l79.189333 167.936c15.402667 32.661333 45.632 55.370667 80.864 60.725333l182.858667 27.808-134.346667 137.077334c-24.362667 24.864-35.52 60.373333-29.845333 95.018666l31.093333 189.770667-158.762666-87.36c-15.626667-8.597333-33.28-13.141333-51.050667-13.141333s-35.424 4.544-51.050667 13.141333l-158.762666 87.36 31.093333-189.770667c5.674667-34.634667-5.482667-70.154667-29.845333-95.018666l-134.336-137.066667 182.858666-27.808c35.232-5.354667 65.461333-28.064 80.864-60.725333L512 178.24M512 85.333333c-15.456 0-30.912 8.405333-38.837333 25.216L374.933333 318.88c-6.293333 13.344-18.485333 22.602667-32.597333 24.746667l-219.914667 33.450666c-35.456 5.397333-49.632 50.805333-24.021333 76.928l159.338667 162.56a46.368 46.368 0 0 1 12.394666 39.872L232.533333 885.824c-4.778667 29.173333 17.450667 52.842667 42.666667 52.842667 6.677333 0 13.557333-1.664 20.202667-5.312L491.797333 825.28a41.834667 41.834667 0 0 1 40.405334 0l196.394666 108.074667A41.76 41.76 0 0 0 748.8 938.666667c25.205333 0 47.434667-23.669333 42.656-52.842667l-37.589333-229.376a46.389333 46.389333 0 0 1 12.394666-39.872l159.338667-162.56c25.610667-26.133333 11.434667-71.541333-24.021333-76.928l-219.914667-33.450667c-14.112-2.144-26.304-11.402667-32.597333-24.746666l-98.229334-208.330667C542.912 93.738667 527.456 85.333333 512 85.333333z" p-id="5815"></path></svg>