<?xml version="1.0" standalone="no"?><!DOCTYPE svg PUBLIC "-//W3C//DTD SVG 1.1//EN" "http://www.w3.org/Graphics/SVG/1.1/DTD/svg11.dtd"><svg t="1536576903909" class="icon" style="" viewBox="0 0 1024 1024" version="1.1" xmlns="http://www.w3.org/2000/svg" p-id="3004" xmlns:xlink="http://www.w3.org/1999/xlink" width="48" height="48"><defs><style type="text/css"></style></defs><path d="M219.428571 768q0-14.848-10.825143-25.746286t-25.746286-10.825143-25.746286 10.825143-10.825143 25.746286 10.825143 25.746286 25.746286 10.825143 25.746286-10.825143 10.825143-25.746286zM877.714286 438.857143q0-29.110857-22.308571-51.126857t-50.834286-22.016l-201.142857 0q0-33.133714 27.428571-91.136t27.428571-91.721143q0-56.027429-18.285714-82.870857t-73.142857-26.843429q-14.848 14.848-21.723429 48.566857t-17.408 71.68-34.011429 62.537143q-12.580571 13.165714-44.032 52.004571-2.267429 2.852571-13.165714 17.115429t-17.993143 23.405714-19.748571 24.283429-22.820571 25.161143-22.016 20.260571-22.820571 15.433143-20.260571 5.12l-18.285714 0 0 365.714286 18.285714 0q7.460571 0 17.993143 1.682286t18.870857 3.730286 21.723429 6.290286 19.968 6.582857 20.260571 7.168 16.603429 5.997714q120.539429 41.691429 195.437714 41.691429l69.12 0q109.714286 0 109.714286-95.451429 0-14.848-2.852571-32.036571 17.115429-9.142857 27.136-29.988571t10.020571-41.984-10.313143-39.424q30.281143-28.598857 30.281143-68.022857 0-14.262857-5.705143-31.744t-14.262857-27.136q18.285714-0.585143 30.573714-26.843429t12.288-46.299429zM950.857143 438.272q0 50.834286-28.013714 93.110857 5.12 18.870857 5.12 39.424 0 44.032-21.723429 82.285714 1.682286 11.995429 1.682286 24.576 0 57.709714-34.304 101.741714 0.585143 79.433143-48.566857 125.44t-129.682286 46.006857l-73.728 0q-54.857143 0-108.251429-12.873143t-123.684571-37.449143q-66.267429-22.820571-78.848-22.820571l-164.571429 0q-30.281143 0-51.712-21.430857t-21.430857-51.712l0-365.714286q0-30.281143 21.430857-51.712t51.712-21.430857l156.598857 0q20.553143-13.677714 78.262857-88.576 33.133714-42.861714 61.147429-73.142857 13.677714-14.262857 20.260571-48.859429t17.408-72.265143 35.401143-61.732571q22.308571-21.138286 51.419429-21.138286 47.981714 0 86.308571 18.578286t58.294857 58.002286 19.968 106.276571q0 53.174857-27.428571 109.714286l100.571429 0q59.465143 0 102.838857 43.446857t43.446857 102.253714z" p-id="3005" fill="#1296db"></path></svg>