<?xml version="1.0" standalone="no"?><!DOCTYPE svg PUBLIC "-//W3C//DTD SVG 1.1//EN" "http://www.w3.org/Graphics/SVG/1.1/DTD/svg11.dtd"><svg t="1537005527836" class="icon" style="" viewBox="0 0 1024 1024" version="1.1" xmlns="http://www.w3.org/2000/svg" p-id="5923" xmlns:xlink="http://www.w3.org/1999/xlink" width="128" height="128"><defs><style type="text/css"></style></defs><path d="M657.066667 934.4c-8.533333 0-17.066667-4.266667-21.333334-10.666667l-72.533333-96H153.6c-53.333333 0-96-38.4-96-87.466666V196.266667c0-49.066667 42.666667-87.466667 96-87.466667h716.8c53.333333 0 96 38.4 96 87.466667v546.133333c0 49.066667-42.666667 87.466667-96 87.466667h-130.133333l-61.866667 93.866666c-4.266667 6.4-12.8 10.666667-21.333333 10.666667zM153.6 162.133333c-23.466667 0-42.666667 14.933333-42.666667 34.133334v546.133333c0 19.2 19.2 34.133333 42.666667 34.133333H576c8.533333 0 17.066667 4.266667 21.333333 10.666667l57.6 76.8L704 789.333333c4.266667-8.533333 12.8-12.8 21.333333-12.8h142.933334c23.466667 0 42.666667-14.933333 42.666666-34.133333V196.266667c0-19.2-19.2-34.133333-42.666666-34.133334H153.6z" fill="" p-id="5924"></path><path d="M260.266667 307.2h505.6V362.666667H260.266667zM260.266667 492.8h505.6v55.466667H260.266667z" fill="" p-id="5925"></path></svg>