<?xml version="1.0" standalone="no"?><!DOCTYPE svg PUBLIC "-//W3C//DTD SVG 1.1//EN" "http://www.w3.org/Graphics/SVG/1.1/DTD/svg11.dtd"><svg t="1537005414528" class="icon" style="" viewBox="0 0 1024 1024" version="1.1" xmlns="http://www.w3.org/2000/svg" p-id="3205" xmlns:xlink="http://www.w3.org/1999/xlink" width="128" height="128"><defs><style type="text/css"></style></defs><path d="M933.47424 623.980397 426.986791 623.980397c-15.537881 0-28.134781-12.549827-28.134781-27.995611L398.85201 232.041844c0-15.489786 12.596899-27.993564 28.134781-27.993564L933.47424 204.048279c15.537881 0 28.135804 12.504802 28.135804 27.993564l0 363.942943C961.610044 611.43057 949.012122 623.980397 933.47424 623.980397L933.47424 623.980397zM891.246487 260.039501 469.212498 260.039501c-7.792477 0-14.090926 6.247284-14.090926 13.995759 0 7.700379 6.29845 13.997805 14.090926 13.997805l422.033989 0c7.792477 0 14.092973-6.297426 14.092973-13.997805C905.33946 266.286786 899.03794 260.039501 891.246487 260.039501L891.246487 260.039501zM891.246487 316.0297 469.212498 316.0297c-7.792477 0-14.090926 6.252401-14.090926 13.997805 0 7.745405 6.29845 13.997805 14.090926 13.997805l422.033989 0c7.792477 0 14.092973-6.252401 14.092973-13.997805C905.33946 322.282101 899.03794 316.0297 891.246487 316.0297L891.246487 316.0297zM891.246487 372.021945 469.212498 372.021945c-7.792477 0-14.090926 6.252401-14.090926 13.994736 0 7.700379 6.29845 13.997805 14.090926 13.997805l422.033989 0c7.792477 0 14.092973-6.297426 14.092973-13.997805C905.33946 378.274346 899.03794 372.021945 891.246487 372.021945L891.246487 372.021945zM891.246487 428.013167 469.212498 428.013167c-7.792477 0-14.090926 6.250354-14.090926 13.997805 0 7.696286 6.29845 13.997805 14.090926 13.997805l422.033989 0c7.792477 0 14.092973-6.30152 14.092973-13.997805C905.33946 434.263521 899.03794 428.013167 891.246487 428.013167L891.246487 428.013167zM891.246487 484.003366 469.212498 484.003366c-7.792477 0-14.090926 6.253424-14.090926 14.000875 0 7.696286 6.29845 13.992689 14.090926 13.992689l422.033989 0c7.792477 0 14.092973-6.297426 14.092973-13.992689C905.33946 490.257813 899.03794 484.003366 891.246487 484.003366L891.246487 484.003366zM891.246487 539.995611 469.212498 539.995611c-7.792477 0-14.090926 6.250354-14.090926 13.997805 0 7.696286 6.29845 13.995759 14.090926 13.995759l422.033989 0c7.792477 0 14.092973-6.300496 14.092973-13.995759C905.33946 546.246989 899.03794 539.995611 891.246487 539.995611L891.246487 539.995611zM734.751247 708.807365 398.850987 708.807365c0 0-28.137851-20.10899-28.137851-56.82931l337.674673 0C708.388832 651.977032 734.751247 686.08485 734.751247 708.807365L734.751247 708.807365zM314.443575 623.980397l-86.179778-0.884137c0 0-84.406388 6.112208-84.406388 81.375356 0 0 1.166569 31.490202-39.847543 31.490202 0 0-41.61991 2.335185-41.61991-26.266224L62.389956 534.719444c0 0 4.105504-27.990494 21.696138-52.488445l61.543681-138.205689c0 0 14.045901-55.992245 56.271608-55.992245 15.817244 1.726318 110.768803 0 110.768803 0s58.043974-3.500731 58.043974 52.493561l-1.725294 225.692229C368.988866 566.218856 367.214453 623.980397 314.443575 623.980397L314.443575 623.980397zM272.262894 567.990199l28.136827 0c7.744381 0 14.043854-6.300496 14.043854-13.995759 0-7.746428-6.299473-13.997805-14.043854-13.997805l-28.136827 0c-7.792477 0-14.089903 6.250354-14.089903 13.997805C258.171967 561.689702 264.470417 567.990199 272.262894 567.990199L272.262894 567.990199zM287.194978 344.025311l-46.612621 0c0 0-29.862121 4.38589-39.567157 25.38311l-83.521229 146.929374-0.558725 23.189142 28.694529-0.419556c0 0-1.772366-27.111474 29.024034-27.111474l110.767779-0.88823c8.818853 2.617617 29.021987-4.379751 29.021987-27.990494L314.443575 372.905058C314.443575 372.905058 317.103148 344.025311 287.194978 344.025311L287.194978 344.025311zM257.284761 651.370211c47.12632 0 85.292572 36.862559 85.292572 83.709517 0 46.891983-38.167275 84.871993-85.292572 84.871993-47.078225 0-84.127026-37.98001-84.127026-84.871993C173.158758 688.23277 210.206536 651.370211 257.284761 651.370211L257.284761 651.370211zM848.180646 651.977032c46.145993 0 83.521229 37.185924 83.521229 83.101673 0 45.911656-37.375236 83.098603-83.521229 83.098603-46.145993 0-83.520205-37.186947-83.520205-83.098603C764.66044 689.162956 802.034653 651.977032 848.180646 651.977032L848.180646 651.977032z" p-id="3206"></path></svg>