<?xml version="1.0" standalone="no"?><!DOCTYPE svg PUBLIC "-//W3C//DTD SVG 1.1//EN" "http://www.w3.org/Graphics/SVG/1.1/DTD/svg11.dtd"><svg t="1537005365691" class="icon" style="" viewBox="0 0 1024 1024" version="1.1" xmlns="http://www.w3.org/2000/svg" p-id="1819" xmlns:xlink="http://www.w3.org/1999/xlink" width="128" height="128"><defs><style type="text/css"></style></defs><path d="M909.228535 181.796486 114.778628 181.796486c-30.706349 0-55.609529 25.013697-55.609529 55.867402l0 548.683481c0 30.852682 24.90318 55.858192 55.609529 55.858192l794.449907 0c30.705326 0 55.600319-25.00551 55.600319-55.858192L964.828854 237.662865C964.828854 206.810183 939.933861 181.796486 909.228535 181.796486zM88.391654 299.204499l646.077671 0-79.93147 146.760528L88.391654 445.965028 88.391654 299.204499zM767.772826 299.204499l48.932456 0-83.497693 146.760528-45.37749 0L767.772826 299.204499zM935.615509 781.970688c0 14.615882-18.171871 30.881334-32.722262 30.881334L111.435487 812.852022c-14.542204 0-23.043832-16.265452-23.043832-30.881334l0-306.654168 847.222831 0L935.614485 781.970688zM935.615509 445.965028l-168.763658 0 83.506902-146.760528 85.255733 0L935.614485 445.965028zM935.615509 269.851984 88.391654 269.851984 88.391654 234.319723c0-14.615882 8.500605-23.171746 23.043832-23.171746l791.45776 0c14.550391 0 32.722262 8.55484 32.722262 23.171746L935.615509 269.851984zM117.606023 607.396697l292.148803 0c8.067746 0 14.606673-6.566556 14.606673-14.671141 0-8.114818-6.538927-14.681374-14.606673-14.681374L117.606023 578.044182c-8.076956 0-14.606673 6.566556-14.606673 14.681374C102.99935 600.830141 109.529067 607.396697 117.606023 607.396697zM117.606023 680.772868l160.677493 0c8.076956 0 14.606673-6.566556 14.606673-14.672164 0-8.113795-6.529717-14.680351-14.606673-14.680351L117.606023 651.420353c-8.076956 0-14.606673 6.566556-14.606673 14.680351C102.99935 674.206312 109.529067 680.772868 117.606023 680.772868z" p-id="1820"></path></svg>