<?xml version="1.0" standalone="no"?><!DOCTYPE svg PUBLIC "-//W3C//DTD SVG 1.1//EN" "http://www.w3.org/Graphics/SVG/1.1/DTD/svg11.dtd"><svg t="1537005504635" class="icon" style="" viewBox="0 0 1024 1024" version="1.1" xmlns="http://www.w3.org/2000/svg" p-id="4645" xmlns:xlink="http://www.w3.org/1999/xlink" width="128" height="128"><defs><style type="text/css"></style></defs><path d="M949.435259 334.265016l-60.423161-120.844276c-17.98563-35.970236-63.682391-64.225767-103.945397-64.225767l-546.189683 0c-40.264029 0-85.960791 28.254507-103.94642 64.225767L74.508459 334.265016c-6.412037 12.82305-8.53028 25.864064-7.280824 38.090527l-0.38067 0 0 470.337111 0.054235 0 0 5.161556c0 14.889105 12.062733 26.951839 26.950815 26.951839L929.656797 874.806049c14.888082 0 26.949792-12.062733 26.949792-26.951839l0-5.161556 0.543376 0L957.149964 372.35452l-0.433882 0C957.965539 360.12908 955.847296 347.088066 949.435259 334.265016zM122.488217 422.615227c2.390443 0.217964 4.619204 0.76134 7.118118 0.76134l764.731048 0c2.499937 0 4.728698-0.543376 7.173376-0.76134l0 86.23299L706.714192 508.848217c-15.377222 0-27.821649 12.443403-27.821649 27.820626 0 15.377222 12.443403 27.820626 27.821649 27.820626l194.795545 0 0 55.641251-361.718275 0c-15.375176 0-27.819602 12.44238-27.819602 27.820626 0 15.376199 12.443403 27.820626 27.819602 27.820626l361.718275 0 0 145.132448-779.022543 0L122.487194 422.615227zM124.281049 359.1508l60.422138-120.844276c8.748245-17.496489 34.558074-33.471322 54.17383-33.471322l546.189683 0c19.614733 0 45.425585 15.974833 54.172807 33.471322l60.423161 120.844276c2.281973 4.672416 2.608407 7.063883 2.715855 7.010671-0.490164 0.379647-3.042289 1.574868-8.042163 1.574868L129.606335 367.736339c-4.184299 0-6.628978-0.86981-7.280824-0.86981-0.162706 0-0.216941 0.10847-0.216941 0.162706C121.999077 366.431623 122.053312 363.606275 124.281049 359.1508z" p-id="4646"></path><path d="M372.870778 508.848217c-15.377222 0-27.820626 12.443403-27.820626 27.820626l0 139.102105L205.949071 675.770947c-15.377222 0-27.820626 12.443403-27.820626 27.820626 0 15.377222 12.443403 27.820626 27.820626 27.820626l166.921707 0c15.377222 0 27.820626-12.44238 27.820626-27.820626l0-166.921707C400.691403 521.29162 388.248 508.848217 372.870778 508.848217z" p-id="4647"></path></svg>